# xmcd CD database file
#
# Track frame offsets:
#	150
#	16253
#	33319
#	49936
#	67192
#	84705
#	106054
#	121978
#	136524
#	154661
#	166741
#	181686
#	197263
#	215412
#	231395
#	245589
#	260240
#	279809
#
# Disc length: 3976 seconds
#
# Revision: 4
# Processed by: cddbd v1.5.2PL0 Copyright (c) Steve Scherf et al.
# Submitted via: CDex 1.70beta3
#
DISCID=ed0f8612
DTITLE=YUI - ORANGE GARDEN POP
DYEAR=2012
DGENRE=JPop
TTITLE0=CHE.R.RY
TTITLE1=feel my soul
TTITLE2=GLORIA
TTITLE3=to Mother
TTITLE4=Merry・Go・Round
TTITLE5=Tomorrow's way
TTITLE6=I'll be
TTITLE7=OH YEAH
TTITLE8=Rain
TTITLE9=Never say die
TTITLE10=es.car
TTITLE11=SUMMER SONG
TTITLE12=Happy Birthday to you you
TTITLE13=Understand
TTITLE14=Separation
TTITLE15=It's My Life
TTITLE16=LOVE and TRUTH
TTITLE17=TOKYO
EXTD=YEAR: 2012
EXTT0=
EXTT1=
EXTT2=
EXTT3=
EXTT4=
EXTT5=
EXTT6=
EXTT7=
EXTT8=
EXTT9=
EXTT10=
EXTT11=
EXTT12=
EXTT13=
EXTT14=
EXTT15=
EXTT16=
EXTT17=
PLAYORDER=
